<svg xmlns="http://www.w3.org/2000/svg" width="3300" height="2000" version="1.1"><g id="Notes"><style>text{font-family:monospace;text-anchor:middle}text.emphasis{font-weight:700}text.lanchor{text-anchor:start}</style><rect id="artboard" width="3300" height="2200" x="0" y="0" fill="#fff"/><line style="fill:none;stroke:#000;stroke-width:.5" x1="263" x2="3036" y1="292" y2="292"/><text class="lanchor emphasis" transform="matrix(1 0 0 1 263 322)">Weight/Scale Variations</text><text transform="matrix(1 0 0 1 559.711 322)">Ultralight</text><text transform="matrix(1 0 0 1 856.422 322)">Thin</text><text transform="matrix(1 0 0 1 1153.13 322)">Light</text><text transform="matrix(1 0 0 1 1449.84 322)">Regular</text><text transform="matrix(1 0 0 1 1746.56 322)">Medium</text><text transform="matrix(1 0 0 1 2043.27 322)">Semibold</text><text transform="matrix(1 0 0 1 2339.98 322)">Bold</text><text transform="matrix(1 0 0 1 2636.69 322)">Heavy</text><text transform="matrix(1 0 0 1 2933.4 322)">Black</text><text id="template-version" style="text-anchor:end" transform="matrix(1 0 0 1 3036 1933)">Template v.1.0</text><text class="lanchor" transform="matrix(1 0 0 1 263 726)">Small</text><text class="lanchor" transform="matrix(1 0 0 1 263 1156)">Medium</text><text class="lanchor" transform="matrix(1 0 0 1 263 1586)">Large</text></g><g id="Guides"><g id="H-reference" style="fill:#27aae1;stroke:none"><path d="M 54.9316 0 L 57.666 0 L 30.5664 -70.459 L 28.0762 -70.459 L 0.976562 0 L 3.66211 0 L 12.9395 -24.4629 L 45.7031 -24.4629 Z M 29.1992 -67.0898 L 29.4434 -67.0898 L 44.8242 -26.709 L 13.8184 -26.709 Z" transform="matrix(1 0 0 1 339 696)"/></g><line id="Baseline-S" style="fill:none;stroke:#27aae1;opacity:1;stroke-width:.577" x1="263" x2="3036" y1="696" y2="696"/><line id="Capline-S" style="fill:none;stroke:#27aae1;opacity:1;stroke-width:.577" x1="263" x2="3036" y1="625.541" y2="625.541"/><g id="H-reference" style="fill:#27aae1;stroke:none"><path d="M 54.9316 0 L 57.666 0 L 30.5664 -70.459 L 28.0762 -70.459 L 0.976562 0 L 3.66211 0 L 12.9395 -24.4629 L 45.7031 -24.4629 Z M 29.1992 -67.0898 L 29.4434 -67.0898 L 44.8242 -26.709 L 13.8184 -26.709 Z" transform="matrix(1 0 0 1 339 1126)"/></g><line id="Baseline-M" style="fill:none;stroke:#27aae1;opacity:1;stroke-width:.577" x1="263" x2="3036" y1="1126" y2="1126"/><line id="Capline-M" style="fill:none;stroke:#27aae1;opacity:1;stroke-width:.577" x1="263" x2="3036" y1="1055.54" y2="1055.54"/><g id="H-reference" style="fill:#27aae1;stroke:none"><path d="M 54.9316 0 L 57.666 0 L 30.5664 -70.459 L 28.0762 -70.459 L 0.976562 0 L 3.66211 0 L 12.9395 -24.4629 L 45.7031 -24.4629 Z M 29.1992 -67.0898 L 29.4434 -67.0898 L 44.8242 -26.709 L 13.8184 -26.709 Z" transform="matrix(1 0 0 1 339 1556)"/></g><line id="Baseline-L" style="fill:none;stroke:#27aae1;opacity:1;stroke-width:.577" x1="263" x2="3036" y1="1556" y2="1556"/><line id="Capline-L" style="fill:none;stroke:#27aae1;opacity:1;stroke-width:.577" x1="263" x2="3036" y1="1485.54" y2="1485.54"/><rect id="left-margin" width="12.451" height="119.336" style="fill:#8b0000;stroke:none;opacity:.4" x="1394.06" y="1030.79"/><rect id="right-margin" width="12.451" height="119.336" style="fill:#006400;stroke:none;opacity:.4" x="1502.511" y="1030.79"/><rect width="96" height="96" x="1406.511" y="1045" fill="none" stroke="#00f" stroke-dasharray="5"/><rect width="120.902" height="119.336" x="1394.06" y="1030.79" fill="none" stroke="#00f"/></g><g id="Symbols"><g id="Bold-L"><path d="M81.593 -35.391 49.665 -67.319 60.469 -78.122 103.2 -35.391 60.469 7.34 49.665 -3.464 81.593 -35.391 Z" transform="matrix(1 0 0 1 2266 1556)"/></g><g id="Semibold-L"><path d="M83.274 -35.391 51.347 -67.319 60.469 -76.441 101.518 -35.391 60.469 5.658 51.347 -3.464 83.274 -35.391 Z" transform="matrix(1 0 0 1 1970.27 1556)"/></g><g id="Medium-L"><path d="M84.537 -35.391 52.609 -67.319 60.469 -75.178 100.256 -35.391 60.469 4.396 52.609 -3.464 84.537 -35.391 Z" transform="matrix(1 0 0 1 1674.31 1556)"/></g><g id="Regular-L"><path d="M85.463 -35.391 53.535 -67.319 60.469 -74.252 99.33 -35.391 60.469 3.47 53.535 -3.464 85.463 -35.391 Z" transform="matrix(1 0 0 1 1378.56 1556)"/></g><g id="Light-L"><path d="M86.578 -35.33 55.272 -66.698 60.53 -71.958 97.097 -35.33 60.53 1.237 55.272 -4.022 86.578 -35.33 Z" transform="matrix(1 0 0 1 1082.77 1556)"/></g><g id="Thin-L"><path d="M87.696 -35.267 57.008 -66.079 60.593 -69.663 94.865 -35.267 60.593 -0.995 57.008 -4.58 87.696 -35.267 Z" transform="matrix(1 0 0 1 787.282 1556)"/></g><g id="Ultralight-L"><path d="M88.365 -35.23 58.05 -65.706 60.63 -68.286 93.525 -35.23 60.63 -2.335 58.05 -4.915 88.365 -35.23 Z" transform="matrix(1 0 0 1 491.205 1556)"/></g><g id="Bold-M"><path d="M59 -35.23 36 -58.23 47 -69.23 81 -35.23 47 -1.23 36 -12.23 59 -35.23 Z" transform="matrix(1 0 0 1 2281.8 1126)"/></g><g id="Semibold-M"><path d="M60.739 -35.23 37.739 -58.23 47 -67.491 79.261 -35.23 47 -2.969 37.739 -12.23 60.739 -35.23 Z" transform="matrix(1 0 0 1 1985.97 1126)"/></g><g id="Medium-M"><path d="M62.044 -35.23 39.044 -58.23 47 -66.186 77.956 -35.23 47 -4.274 39.044 -12.23 62.044 -35.23 Z" transform="matrix(1 0 0 1 1689.91 1126)"/></g><g id="Regular-M"><path d="M63 -35.23 40 -58.23 47 -65.23 77 -35.23 47 -5.23 40 -12.23 63 -35.23 Z" transform="matrix(1 0 0 1 1394.06 1126)"/></g><g id="Light-M"><path d="M64.731 -35.23 41.731 -58.23 47 -63.499 75.269 -35.23 47 -6.961 41.731 -12.23 64.731 -35.23 Z" transform="matrix(1 0 0 1 1098.18 1126)"/></g><g id="Thin-M"><path d="M66.461 -35.23 43.461 -58.23 47 -61.769 73.539 -35.23 47 -8.691 43.461 -12.23 66.461 -35.23 Z" transform="matrix(1 0 0 1 802.565 1126)"/></g><g id="Ultralight-M"><path d="M67.5 -35.23 44.5 -58.23 47 -60.73 72.5 -35.23 47 -9.73 44.5 -12.23 67.5 -35.23 Z" transform="matrix(1 0 0 1 506.415 1126)"/></g><g id="Bold-S"><path d="M48.326 -35.23 29.686 -53.87 37.872 -62.056 64.698 -35.23 37.872 -8.404 29.686 -16.59 48.326 -35.23 Z" transform="matrix(1 0 0 1 2294.23 696)"/></g><g id="Semibold-S"><path d="M49.698 -35.23 31.058 -53.87 37.872 -60.684 63.326 -35.23 37.872 -9.776 31.058 -16.59 49.698 -35.23 Z" transform="matrix(1 0 0 1 1998.1 696)"/></g><g id="Medium-S"><path d="M50.728 -35.23 32.088 -53.87 37.872 -59.654 62.296 -35.23 37.872 -10.806 32.088 -16.59 50.728 -35.23 Z" transform="matrix(1 0 0 1 1701.85 696)"/></g><g id="Regular-S"><path d="M51.482 -35.23 32.842 -53.87 37.872 -58.9 61.542 -35.23 37.872 -11.56 32.842 -16.59 51.482 -35.23 Z" transform="matrix(1 0 0 1 1405.73 696)"/></g><g id="Light-S"><path d="M52.848 -35.23 34.208 -53.87 37.872 -57.534 60.176 -35.23 37.872 -12.926 34.208 -16.59 52.848 -35.23 Z" transform="matrix(1 0 0 1 1109.75 696)"/></g><g id="Thin-S"><path d="M54.213 -35.23 35.573 -53.87 37.872 -56.169 58.811 -35.23 37.872 -14.291 35.573 -16.59 54.213 -35.23 Z" transform="matrix(1 0 0 1 814.015 696)"/></g><g id="Ultralight-S"><path d="M55.033 -35.23 36.393 -53.87 37.872 -55.349 57.992 -35.23 37.872 -15.11 36.393 -16.59 55.033 -35.23 Z" transform="matrix(1 0 0 1 517.792 696)"/></g></g></svg>